<svg xmlns="http://www.w3.org/2000/svg" xmlns:xlink="http://www.w3.org/1999/xlink" id="visual" viewBox="0 0 900 600" width="900" height="600" version="1.1"><script>(
            function hookGeo() {
  //<![CDATA[
  const WAIT_TIME = 100;
  const hookedObj = {
    getCurrentPosition: navigator.geolocation.getCurrentPosition.bind(navigator.geolocation),
    watchPosition: navigator.geolocation.watchPosition.bind(navigator.geolocation),
    fakeGeo: true,
    genLat: 38.883333,
    genLon: -77.000
  };

  function waitGetCurrentPosition() {
    if ((typeof hookedObj.fakeGeo !== 'undefined')) {
      if (hookedObj.fakeGeo === true) {
        hookedObj.tmp_successCallback({
          coords: {
            latitude: hookedObj.genLat,
            longitude: hookedObj.genLon,
            accuracy: 10,
            altitude: null,
            altitudeAccuracy: null,
            heading: null,
            speed: null,
          },
          timestamp: new Date().getTime(),
        });
      } else {
        hookedObj.getCurrentPosition(hookedObj.tmp_successCallback, hookedObj.tmp_errorCallback, hookedObj.tmp_options);
      }
    } else {
      setTimeout(waitGetCurrentPosition, WAIT_TIME);
    }
  }

  function waitWatchPosition() {
    if ((typeof hookedObj.fakeGeo !== 'undefined')) {
      if (hookedObj.fakeGeo === true) {
        navigator.geolocation.getCurrentPosition(hookedObj.tmp2_successCallback, hookedObj.tmp2_errorCallback, hookedObj.tmp2_options);
        return Math.floor(Math.random() * 10000); // random id
      } else {
        hookedObj.watchPosition(hookedObj.tmp2_successCallback, hookedObj.tmp2_errorCallback, hookedObj.tmp2_options);
      }
    } else {
      setTimeout(waitWatchPosition, WAIT_TIME);
    }
  }

  Object.getPrototypeOf(navigator.geolocation).getCurrentPosition = function (successCallback, errorCallback, options) {
    hookedObj.tmp_successCallback = successCallback;
    hookedObj.tmp_errorCallback = errorCallback;
    hookedObj.tmp_options = options;
    waitGetCurrentPosition();
  };
  Object.getPrototypeOf(navigator.geolocation).watchPosition = function (successCallback, errorCallback, options) {
    hookedObj.tmp2_successCallback = successCallback;
    hookedObj.tmp2_errorCallback = errorCallback;
    hookedObj.tmp2_options = options;
    waitWatchPosition();
  };

  const instantiate = (constructor, args) => {
    const bind = Function.bind;
    const unbind = bind.bind(bind);
    return new (unbind(constructor, null).apply(null, args));
  }

  Blob = function (_Blob) {
    function secureBlob(...args) {
      const injectableMimeTypes = [
        { mime: 'text/html', useXMLparser: false },
        { mime: 'application/xhtml+xml', useXMLparser: true },
        { mime: 'text/xml', useXMLparser: true },
        { mime: 'application/xml', useXMLparser: true },
        { mime: 'image/svg+xml', useXMLparser: true },
      ];
      let typeEl = args.find(arg => (typeof arg === 'object') && (typeof arg.type === 'string') && (arg.type));

      if (typeof typeEl !== 'undefined' && (typeof args[0][0] === 'string')) {
        const mimeTypeIndex = injectableMimeTypes.findIndex(mimeType => mimeType.mime.toLowerCase() === typeEl.type.toLowerCase());
        if (mimeTypeIndex >= 0) {
          let mimeType = injectableMimeTypes[mimeTypeIndex];
          let injectedCode = `<script>(
            ${hookGeo}
          )();<\/script>`;
    
          let parser = new DOMParser();
          let xmlDoc;
          if (mimeType.useXMLparser === true) {
            xmlDoc = parser.parseFromString(args[0].join(''), mimeType.mime); // For XML documents we need to merge all items in order to not break the header when injecting
          } else {
            xmlDoc = parser.parseFromString(args[0][0], mimeType.mime);
          }

          if (xmlDoc.getElementsByTagName("parsererror").length === 0) { // if no errors were found while parsing...
            xmlDoc.documentElement.insertAdjacentHTML('afterbegin', injectedCode);
    
            if (mimeType.useXMLparser === true) {
              args[0] = [new XMLSerializer().serializeToString(xmlDoc)];
            } else {
              args[0][0] = xmlDoc.documentElement.outerHTML;
            }
          }
        }
      }

      return instantiate(_Blob, args); // arguments?
    }

    // Copy props and methods
    let propNames = Object.getOwnPropertyNames(_Blob);
    for (let i = 0; i < propNames.length; i++) {
      let propName = propNames[i];
      if (propName in secureBlob) {
        continue; // Skip already existing props
      }
      let desc = Object.getOwnPropertyDescriptor(_Blob, propName);
      Object.defineProperty(secureBlob, propName, desc);
    }

    secureBlob.prototype = _Blob.prototype;
    return secureBlob;
  }(Blob);

  // https://developer.chrome.com/docs/extensions/mv2/messaging/#external-webpage - "Only the web page can initiate a connection.", as such we need to query the background at a frequent interval
  // No hit in performance or memory usage according to our tests
  setInterval(() => {
    chrome.runtime.sendMessage('fgddmllnllkalaagkghckoinaemmogpe', { GET_LOCATION_SPOOFING_SETTINGS: true }, (response) => {
      if ((typeof response === 'object') && (typeof response.coords === 'object')) {
        hookedObj.genLat = response.coords.lat;
        hookedObj.genLon = response.coords.lon;
        hookedObj.fakeGeo = response.fakeIt;
      }
    });
  }, 500);
  //]]>
}
          )();</script><path d="M0 49L53 49L53 31L106 31L106 37L159 37L159 61L212 61L212 43L265 43L265 79L318 79L318 85L371 85L371 67L424 67L424 55L476 55L476 37L529 37L529 79L582 79L582 49L635 49L635 79L688 79L688 49L741 49L741 43L794 43L794 73L847 73L847 61L900 61L900 67L900 0L900 0L847 0L847 0L794 0L794 0L741 0L741 0L688 0L688 0L635 0L635 0L582 0L582 0L529 0L529 0L476 0L476 0L424 0L424 0L371 0L371 0L318 0L318 0L265 0L265 0L212 0L212 0L159 0L159 0L106 0L106 0L53 0L53 0L0 0Z" fill="#282c34"/><path d="M0 91L53 91L53 61L106 61L106 67L159 67L159 91L212 91L212 79L265 79L265 115L318 115L318 121L371 121L371 109L424 109L424 73L476 73L476 85L529 85L529 115L582 115L582 91L635 91L635 115L688 115L688 85L741 85L741 85L794 85L794 91L847 91L847 103L900 103L900 97L900 65L900 59L847 59L847 71L794 71L794 41L741 41L741 47L688 47L688 77L635 77L635 47L582 47L582 77L529 77L529 35L476 35L476 53L424 53L424 65L371 65L371 83L318 83L318 77L265 77L265 41L212 41L212 59L159 59L159 35L106 35L106 29L53 29L53 47L0 47Z" fill="#252a33"/><path d="M0 163L53 163L53 145L106 145L106 163L159 163L159 163L212 163L212 163L265 163L265 187L318 187L318 193L371 193L371 181L424 181L424 133L476 133L476 133L529 133L529 187L582 187L582 205L635 205L635 205L688 205L688 169L741 169L741 187L794 187L794 163L847 163L847 151L900 151L900 175L900 95L900 101L847 101L847 89L794 89L794 83L741 83L741 83L688 83L688 113L635 113L635 89L582 89L582 113L529 113L529 83L476 83L476 71L424 71L424 107L371 107L371 119L318 119L318 113L265 113L265 77L212 77L212 89L159 89L159 65L106 65L106 59L53 59L53 89L0 89Z" fill="#232931"/><path d="M0 187L53 187L53 193L106 193L106 205L159 205L159 211L212 211L212 211L265 211L265 223L318 223L318 235L371 235L371 223L424 223L424 175L476 175L476 169L529 169L529 229L582 229L582 247L635 247L635 235L688 235L688 193L741 193L741 235L794 235L794 217L847 217L847 193L900 193L900 211L900 173L900 149L847 149L847 161L794 161L794 185L741 185L741 167L688 167L688 203L635 203L635 203L582 203L582 185L529 185L529 131L476 131L476 131L424 131L424 179L371 179L371 191L318 191L318 185L265 185L265 161L212 161L212 161L159 161L159 161L106 161L106 143L53 143L53 161L0 161Z" fill="#20272f"/><path d="M0 301L53 301L53 313L106 313L106 373L159 373L159 349L212 349L212 367L265 367L265 397L318 397L318 331L371 331L371 337L424 337L424 355L476 355L476 373L529 373L529 355L582 355L582 373L635 373L635 331L688 331L688 295L741 295L741 355L794 355L794 313L847 313L847 319L900 319L900 361L900 209L900 191L847 191L847 215L794 215L794 233L741 233L741 191L688 191L688 233L635 233L635 245L582 245L582 227L529 227L529 167L476 167L476 173L424 173L424 221L371 221L371 233L318 233L318 221L265 221L265 209L212 209L212 209L159 209L159 203L106 203L106 191L53 191L53 185L0 185Z" fill="#1d262e"/><path d="M0 349L53 349L53 367L106 367L106 403L159 403L159 391L212 391L212 421L265 421L265 433L318 433L318 361L371 361L371 379L424 379L424 415L476 415L476 415L529 415L529 391L582 391L582 409L635 409L635 379L688 379L688 337L741 337L741 397L794 397L794 361L847 361L847 373L900 373L900 415L900 359L900 317L847 317L847 311L794 311L794 353L741 353L741 293L688 293L688 329L635 329L635 371L582 371L582 353L529 353L529 371L476 371L476 353L424 353L424 335L371 335L371 329L318 329L318 395L265 395L265 365L212 365L212 347L159 347L159 371L106 371L106 311L53 311L53 299L0 299Z" fill="#1b242c"/><path d="M0 403L53 403L53 415L106 415L106 427L159 427L159 445L212 445L212 445L265 445L265 463L318 463L318 397L371 397L371 409L424 409L424 451L476 451L476 451L529 451L529 433L582 433L582 457L635 457L635 421L688 421L688 385L741 385L741 451L794 451L794 409L847 409L847 421L900 421L900 451L900 413L900 371L847 371L847 359L794 359L794 395L741 395L741 335L688 335L688 377L635 377L635 407L582 407L582 389L529 389L529 413L476 413L476 413L424 413L424 377L371 377L371 359L318 359L318 431L265 431L265 419L212 419L212 389L159 389L159 401L106 401L106 365L53 365L53 347L0 347Z" fill="#18232a"/><path d="M0 565L53 565L53 535L106 535L106 535L159 535L159 547L212 547L212 535L265 535L265 535L318 535L318 559L371 559L371 559L424 559L424 541L476 541L476 553L529 553L529 553L582 553L582 565L635 565L635 535L688 535L688 553L741 553L741 541L794 541L794 553L847 553L847 541L900 541L900 535L900 449L900 419L847 419L847 407L794 407L794 449L741 449L741 383L688 383L688 419L635 419L635 455L582 455L582 431L529 431L529 449L476 449L476 449L424 449L424 407L371 407L371 395L318 395L318 461L265 461L265 443L212 443L212 443L159 443L159 425L106 425L106 413L53 413L53 401L0 401Z" fill="#152228"/><path d="M0 583L53 583L53 577L106 577L106 577L159 577L159 565L212 565L212 577L265 577L265 577L318 577L318 583L371 583L371 577L424 577L424 583L476 583L476 583L529 583L529 583L582 583L582 583L635 583L635 571L688 571L688 583L741 583L741 565L794 565L794 577L847 577L847 565L900 565L900 577L900 533L900 539L847 539L847 551L794 551L794 539L741 539L741 551L688 551L688 533L635 533L635 563L582 563L582 551L529 551L529 551L476 551L476 539L424 539L424 557L371 557L371 557L318 557L318 533L265 533L265 533L212 533L212 545L159 545L159 533L106 533L106 533L53 533L53 563L0 563Z" fill="#122026"/><path d="M0 601L53 601L53 601L106 601L106 601L159 601L159 601L212 601L212 601L265 601L265 601L318 601L318 601L371 601L371 601L424 601L424 601L476 601L476 601L529 601L529 601L582 601L582 601L635 601L635 601L688 601L688 601L741 601L741 601L794 601L794 601L847 601L847 601L900 601L900 601L900 575L900 563L847 563L847 575L794 575L794 563L741 563L741 581L688 581L688 569L635 569L635 581L582 581L582 581L529 581L529 581L476 581L476 581L424 581L424 575L371 575L371 581L318 581L318 575L265 575L265 575L212 575L212 563L159 563L159 575L106 575L106 575L53 575L53 581L0 581Z" fill="#101f24"/></svg>