<svg xmlns="http://www.w3.org/2000/svg" xmlns:xlink="http://www.w3.org/1999/xlink" id="visual" viewBox="0 0 900 600" width="900" height="600" version="1.1"><path d="M0 97L47 97L47 55L95 55L95 79L142 79L142 151L189 151L189 85L237 85L237 127L284 127L284 85L332 85L332 109L379 109L379 109L426 109L426 91L474 91L474 79L521 79L521 109L568 109L568 67L616 67L616 67L663 67L663 139L711 139L711 85L758 85L758 139L805 139L805 79L853 79L853 55L900 55L900 187L900 0L900 0L853 0L853 0L805 0L805 0L758 0L758 0L711 0L711 0L663 0L663 0L616 0L616 0L568 0L568 0L521 0L521 0L474 0L474 0L426 0L426 0L379 0L379 0L332 0L332 0L284 0L284 0L237 0L237 0L189 0L189 0L142 0L142 0L95 0L95 0L47 0L47 0L0 0Z" fill="#111e22"/><path d="M0 193L47 193L47 115L95 115L95 169L142 169L142 247L189 247L189 121L237 121L237 157L284 157L284 199L332 199L332 193L379 193L379 205L426 205L426 127L474 127L474 157L521 157L521 205L568 205L568 151L616 151L616 109L663 109L663 193L711 193L711 145L758 145L758 217L805 217L805 127L853 127L853 133L900 133L900 247L900 185L900 53L853 53L853 77L805 77L805 137L758 137L758 83L711 83L711 137L663 137L663 65L616 65L616 65L568 65L568 107L521 107L521 77L474 77L474 89L426 89L426 107L379 107L379 107L332 107L332 83L284 83L284 125L237 125L237 83L189 83L189 149L142 149L142 77L95 77L95 53L47 53L47 95L0 95Z" fill="#0b1c22"/><path d="M0 307L47 307L47 349L95 349L95 271L142 271L142 433L189 433L189 295L237 295L237 397L284 397L284 439L332 439L332 325L379 325L379 313L426 313L426 283L474 283L474 235L521 235L521 403L568 403L568 439L616 439L616 313L663 313L663 409L711 409L711 289L758 289L758 319L805 319L805 403L853 403L853 223L900 223L900 469L900 245L900 131L853 131L853 125L805 125L805 215L758 215L758 143L711 143L711 191L663 191L663 107L616 107L616 149L568 149L568 203L521 203L521 155L474 155L474 125L426 125L426 203L379 203L379 191L332 191L332 197L284 197L284 155L237 155L237 119L189 119L189 245L142 245L142 167L95 167L95 113L47 113L47 191L0 191Z" fill="#051922"/><path d="M0 403L47 403L47 457L95 457L95 397L142 397L142 469L189 469L189 343L237 343L237 433L284 433L284 481L332 481L332 451L379 451L379 379L426 379L426 421L474 421L474 337L521 337L521 529L568 529L568 517L616 517L616 415L663 415L663 463L711 463L711 391L758 391L758 355L805 355L805 493L853 493L853 319L900 319L900 511L900 467L900 221L853 221L853 401L805 401L805 317L758 317L758 287L711 287L711 407L663 407L663 311L616 311L616 437L568 437L568 401L521 401L521 233L474 233L474 281L426 281L426 311L379 311L379 323L332 323L332 437L284 437L284 395L237 395L237 293L189 293L189 431L142 431L142 269L95 269L95 347L47 347L47 305L0 305Z" fill="#011622"/><path d="M0 601L47 601L47 601L95 601L95 601L142 601L142 601L189 601L189 601L237 601L237 601L284 601L284 601L332 601L332 601L379 601L379 601L426 601L426 601L474 601L474 601L521 601L521 601L568 601L568 601L616 601L616 601L663 601L663 601L711 601L711 601L758 601L758 601L805 601L805 601L853 601L853 601L900 601L900 601L900 509L900 317L853 317L853 491L805 491L805 353L758 353L758 389L711 389L711 461L663 461L663 413L616 413L616 515L568 515L568 527L521 527L521 335L474 335L474 419L426 419L426 377L379 377L379 449L332 449L332 479L284 479L284 431L237 431L237 341L189 341L189 467L142 467L142 395L95 395L95 455L47 455L47 401L0 401Z" fill="#001122"/></svg>