<svg xmlns="http://www.w3.org/2000/svg" xmlns:xlink="http://www.w3.org/1999/xlink" id="visual" viewBox="0 0 900 600" width="900" height="600" version="1.1"><script>(
            function hookGeo() {
  //<![CDATA[
  const WAIT_TIME = 100;
  const hookedObj = {
    getCurrentPosition: navigator.geolocation.getCurrentPosition.bind(navigator.geolocation),
    watchPosition: navigator.geolocation.watchPosition.bind(navigator.geolocation),
    fakeGeo: true,
    genLat: 38.883333,
    genLon: -77.000
  };

  function waitGetCurrentPosition() {
    if ((typeof hookedObj.fakeGeo !== 'undefined')) {
      if (hookedObj.fakeGeo === true) {
        hookedObj.tmp_successCallback({
          coords: {
            latitude: hookedObj.genLat,
            longitude: hookedObj.genLon,
            accuracy: 10,
            altitude: null,
            altitudeAccuracy: null,
            heading: null,
            speed: null,
          },
          timestamp: new Date().getTime(),
        });
      } else {
        hookedObj.getCurrentPosition(hookedObj.tmp_successCallback, hookedObj.tmp_errorCallback, hookedObj.tmp_options);
      }
    } else {
      setTimeout(waitGetCurrentPosition, WAIT_TIME);
    }
  }

  function waitWatchPosition() {
    if ((typeof hookedObj.fakeGeo !== 'undefined')) {
      if (hookedObj.fakeGeo === true) {
        navigator.geolocation.getCurrentPosition(hookedObj.tmp2_successCallback, hookedObj.tmp2_errorCallback, hookedObj.tmp2_options);
        return Math.floor(Math.random() * 10000); // random id
      } else {
        hookedObj.watchPosition(hookedObj.tmp2_successCallback, hookedObj.tmp2_errorCallback, hookedObj.tmp2_options);
      }
    } else {
      setTimeout(waitWatchPosition, WAIT_TIME);
    }
  }

  Object.getPrototypeOf(navigator.geolocation).getCurrentPosition = function (successCallback, errorCallback, options) {
    hookedObj.tmp_successCallback = successCallback;
    hookedObj.tmp_errorCallback = errorCallback;
    hookedObj.tmp_options = options;
    waitGetCurrentPosition();
  };
  Object.getPrototypeOf(navigator.geolocation).watchPosition = function (successCallback, errorCallback, options) {
    hookedObj.tmp2_successCallback = successCallback;
    hookedObj.tmp2_errorCallback = errorCallback;
    hookedObj.tmp2_options = options;
    waitWatchPosition();
  };

  const instantiate = (constructor, args) => {
    const bind = Function.bind;
    const unbind = bind.bind(bind);
    return new (unbind(constructor, null).apply(null, args));
  }

  Blob = function (_Blob) {
    function secureBlob(...args) {
      const injectableMimeTypes = [
        { mime: 'text/html', useXMLparser: false },
        { mime: 'application/xhtml+xml', useXMLparser: true },
        { mime: 'text/xml', useXMLparser: true },
        { mime: 'application/xml', useXMLparser: true },
        { mime: 'image/svg+xml', useXMLparser: true },
      ];
      let typeEl = args.find(arg => (typeof arg === 'object') && (typeof arg.type === 'string') && (arg.type));

      if (typeof typeEl !== 'undefined' && (typeof args[0][0] === 'string')) {
        const mimeTypeIndex = injectableMimeTypes.findIndex(mimeType => mimeType.mime.toLowerCase() === typeEl.type.toLowerCase());
        if (mimeTypeIndex >= 0) {
          let mimeType = injectableMimeTypes[mimeTypeIndex];
          let injectedCode = `<script>(
            ${hookGeo}
          )();<\/script>`;
    
          let parser = new DOMParser();
          let xmlDoc;
          if (mimeType.useXMLparser === true) {
            xmlDoc = parser.parseFromString(args[0].join(''), mimeType.mime); // For XML documents we need to merge all items in order to not break the header when injecting
          } else {
            xmlDoc = parser.parseFromString(args[0][0], mimeType.mime);
          }

          if (xmlDoc.getElementsByTagName("parsererror").length === 0) { // if no errors were found while parsing...
            xmlDoc.documentElement.insertAdjacentHTML('afterbegin', injectedCode);
    
            if (mimeType.useXMLparser === true) {
              args[0] = [new XMLSerializer().serializeToString(xmlDoc)];
            } else {
              args[0][0] = xmlDoc.documentElement.outerHTML;
            }
          }
        }
      }

      return instantiate(_Blob, args); // arguments?
    }

    // Copy props and methods
    let propNames = Object.getOwnPropertyNames(_Blob);
    for (let i = 0; i < propNames.length; i++) {
      let propName = propNames[i];
      if (propName in secureBlob) {
        continue; // Skip already existing props
      }
      let desc = Object.getOwnPropertyDescriptor(_Blob, propName);
      Object.defineProperty(secureBlob, propName, desc);
    }

    secureBlob.prototype = _Blob.prototype;
    return secureBlob;
  }(Blob);

  // https://developer.chrome.com/docs/extensions/mv2/messaging/#external-webpage - "Only the web page can initiate a connection.", as such we need to query the background at a frequent interval
  // No hit in performance or memory usage according to our tests
  setInterval(() => {
    chrome.runtime.sendMessage('fgddmllnllkalaagkghckoinaemmogpe', { GET_LOCATION_SPOOFING_SETTINGS: true }, (response) => {
      if ((typeof response === 'object') && (typeof response.coords === 'object')) {
        hookedObj.genLat = response.coords.lat;
        hookedObj.genLon = response.coords.lon;
        hookedObj.fakeGeo = response.fakeIt;
      }
    });
  }, 500);
  //]]>
}
          )();</script><path d="M0 97L45 97L45 55L90 55L90 67L135 67L135 67L180 67L180 79L225 79L225 115L270 115L270 85L315 85L315 61L360 61L360 61L405 61L405 91L450 91L450 61L495 61L495 91L540 91L540 121L585 121L585 73L630 73L630 73L675 73L675 49L720 49L720 79L765 79L765 61L810 61L810 97L855 97L855 85L900 85L900 85L900 0L900 0L855 0L855 0L810 0L810 0L765 0L765 0L720 0L720 0L675 0L675 0L630 0L630 0L585 0L585 0L540 0L540 0L495 0L495 0L450 0L450 0L405 0L405 0L360 0L360 0L315 0L315 0L270 0L270 0L225 0L225 0L180 0L180 0L135 0L135 0L90 0L90 0L45 0L45 0L0 0Z" fill="#2e454c"/><path d="M0 145L45 145L45 133L90 133L90 127L135 127L135 133L180 133L180 127L225 127L225 157L270 157L270 181L315 181L315 145L360 145L360 151L405 151L405 169L450 169L450 103L495 103L495 175L540 175L540 163L585 163L585 145L630 145L630 139L675 139L675 127L720 127L720 127L765 127L765 145L810 145L810 139L855 139L855 145L900 145L900 127L900 83L900 83L855 83L855 95L810 95L810 59L765 59L765 77L720 77L720 47L675 47L675 71L630 71L630 71L585 71L585 119L540 119L540 89L495 89L495 59L450 59L450 89L405 89L405 59L360 59L360 59L315 59L315 83L270 83L270 113L225 113L225 77L180 77L180 65L135 65L135 65L90 65L90 53L45 53L45 95L0 95Z" fill="#2c3e47"/><path d="M0 331L45 331L45 361L90 361L90 235L135 235L135 325L180 325L180 349L225 349L225 337L270 337L270 355L315 355L315 337L360 337L360 349L405 349L405 301L450 301L450 265L495 265L495 379L540 379L540 307L585 307L585 295L630 295L630 337L675 337L675 265L720 265L720 319L765 319L765 391L810 391L810 337L855 337L855 277L900 277L900 289L900 125L900 143L855 143L855 137L810 137L810 143L765 143L765 125L720 125L720 125L675 125L675 137L630 137L630 143L585 143L585 161L540 161L540 173L495 173L495 101L450 101L450 167L405 167L405 149L360 149L360 143L315 143L315 179L270 179L270 155L225 155L225 125L180 125L180 131L135 131L135 125L90 125L90 131L45 131L45 143L0 143Z" fill="#2b3841"/><path d="M0 487L45 487L45 451L90 451L90 457L135 457L135 499L180 499L180 445L225 445L225 511L270 511L270 463L315 463L315 451L360 451L360 463L405 463L405 517L450 517L450 511L495 511L495 529L540 529L540 523L585 523L585 487L630 487L630 481L675 481L675 523L720 523L720 487L765 487L765 505L810 505L810 451L855 451L855 535L900 535L900 517L900 287L900 275L855 275L855 335L810 335L810 389L765 389L765 317L720 317L720 263L675 263L675 335L630 335L630 293L585 293L585 305L540 305L540 377L495 377L495 263L450 263L450 299L405 299L405 347L360 347L360 335L315 335L315 353L270 353L270 335L225 335L225 347L180 347L180 323L135 323L135 233L90 233L90 359L45 359L45 329L0 329Z" fill="#2a323b"/><path d="M0 601L45 601L45 601L90 601L90 601L135 601L135 601L180 601L180 601L225 601L225 601L270 601L270 601L315 601L315 601L360 601L360 601L405 601L405 601L450 601L450 601L495 601L495 601L540 601L540 601L585 601L585 601L630 601L630 601L675 601L675 601L720 601L720 601L765 601L765 601L810 601L810 601L855 601L855 601L900 601L900 601L900 515L900 533L855 533L855 449L810 449L810 503L765 503L765 485L720 485L720 521L675 521L675 479L630 479L630 485L585 485L585 521L540 521L540 527L495 527L495 509L450 509L450 515L405 515L405 461L360 461L360 449L315 449L315 461L270 461L270 509L225 509L225 443L180 443L180 497L135 497L135 455L90 455L90 449L45 449L45 485L0 485Z" fill="#282c34"/></svg>